<?xml version="1.0" standalone="no"?><!DOCTYPE svg PUBLIC "-//W3C//DTD SVG 1.1//EN" "http://www.w3.org/Graphics/SVG/1.1/DTD/svg11.dtd"><svg t="1545476948032" class="icon" style="" viewBox="0 0 1024 1024" version="1.1" xmlns="http://www.w3.org/2000/svg" p-id="2307" xmlns:xlink="http://www.w3.org/1999/xlink" width="200" height="200"><defs><style type="text/css"></style></defs><path d="M502.3 121c95.2 0 142.2 22.7 200.6 58.5l109.6-41.1c6.8-2.5 14.2-2.8 21.1-0.8 17.7 5.2 27.8 23.7 22.6 41.4l-33.9 115.4c40.5 60.9 64.2 134 64.2 212.6 0 212.1-171.9 384-384 384s-384-171.9-384-384c0-84.1 27-161.9 72.9-225.1L160.9 179c-5.2-17.7 4.9-36.2 22.6-41.4 6.9-2 14.3-1.8 21.1 0.8l101.9 38.2c67.1-37 132.4-55.6 195.8-55.6z" fill="#D8F3B2" p-id="2308"></path><path d="M355.3 440m-84 0a84 84 0 1 0 168 0 84 84 0 1 0-168 0Z" fill="#FFFFFF" p-id="2309"></path><path d="M655.3 440m-84 0a84 84 0 1 0 168 0 84 84 0 1 0-168 0Z" fill="#FFFFFF" p-id="2310"></path><path d="M505.3 906c-53.9 0-106.1-10.6-155.3-31.4-47.5-20.1-90.2-48.9-126.8-85.5-36.6-36.6-65.4-79.3-85.5-126.8-20.8-49.2-31.4-101.5-31.4-155.3 0-82.2 24.7-160.8 71.4-227.9l-28.2-95.9c-3.6-12.4-2.2-25.4 3.9-36.8s16.4-19.6 28.8-23.2c10-2.9 20.9-2.5 30.6 1.1l95.5 35.8c66.9-35.9 133.1-54.1 197-54.1 46.6 0 84.3 5.3 118.8 16.5 29.4 9.6 54.9 23.1 83.4 40.3l102.7-38.5c9.7-3.7 20.6-4.1 30.6-1.1 12.4 3.6 22.6 11.9 28.8 23.2s7.6 24.4 3.9 36.8l-32 108.8c41.1 64.2 62.8 138.3 62.8 215 0 53.9-10.6 106.1-31.4 155.3-20.1 47.5-48.9 90.2-85.5 126.8s-79.3 65.4-126.8 85.5C611.4 895.5 559.2 906 505.3 906zM195.9 151.3c-1.7 0-3.5 0.2-5.2 0.7-4.7 1.4-8.6 4.5-10.9 8.8-2.3 4.3-2.9 9.3-1.5 13.9l32.3 110-4.3 6c-45.8 63.2-70 138-70 216.3 0 98.6 38.4 191.2 108.1 260.9 33.9 33.9 73.4 60.5 117.3 79.1 45.5 19.2 93.8 29 143.6 29s98.1-9.8 143.6-29c43.9-18.6 83.4-45.2 117.3-79.1C836 698.3 874.3 605.6 874.3 507c0-73.1-21.3-143.7-61.6-204.3l-3.9-5.8 35.9-122.1c1.4-4.7 0.9-9.7-1.5-14-2.3-4.3-6.2-7.4-10.9-8.8-3.8-1.1-7.9-1-11.6 0.4l-116.4 43.7-6.2-3.8c-53.7-32.9-98.9-56.3-192.7-56.3-60.6 0-124 18.1-188.5 53.7l-6.1 3.3-108.4-40.6c-2.1-0.7-4.3-1.1-6.5-1.1z" fill="#525252" p-id="2311"></path><path d="M355.3 440m-25 0a25 25 0 1 0 50 0 25 25 0 1 0-50 0Z" fill="#525252" p-id="2312"></path><path d="M655.3 440m-25 0a25 25 0 1 0 50 0 25 25 0 1 0-50 0Z" fill="#525252" p-id="2313"></path><path d="M355.3 347c-51.3 0-93 41.7-93 93s41.7 93 93 93 93-41.7 93-93-41.7-93-93-93z m0 168c-41.4 0-75-33.6-75-75s33.6-75 75-75 75 33.6 75 75-33.6 75-75 75zM655.3 347c-51.3 0-93 41.7-93 93s41.7 93 93 93 93-41.7 93-93-41.7-93-93-93z m0 168c-41.4 0-75-33.6-75-75s33.6-75 75-75 75 33.6 75 75-33.6 75-75 75zM502.3 221.1c17.4 0 31.5-14.1 31.5-31.5v-39c0-17.4-14.1-31.5-31.5-31.5s-31.5 14.1-31.5 31.5v39c0 17.4 14.1 31.5 31.5 31.5zM605.3 212.1c17.4 0 31.5-14.1 31.5-31.5v-16c0-17.4-14.1-31.5-31.5-31.5s-31.5 14.1-31.5 31.5v16c0 17.4 14.1 31.5 31.5 31.5zM399.3 212.1c17.4 0 31.5-14.1 31.5-31.5v-16c0-17.4-14.1-31.5-31.5-31.5s-31.5 14.1-31.5 31.5v16c0 17.4 14.1 31.5 31.5 31.5zM738.3 586.5c0 5 4 9 9 9h200c5 0 9-4 9-9s-4-9-9-9h-200c-4.9 0-9 4.1-9 9zM947.3 644.5h-200c-5 0-9 4-9 9s4 9 9 9h200c5 0 9-4 9-9s-4-9-9-9zM263.3 577.5h-200c-5 0-9 4-9 9s4 9 9 9h200c5 0 9-4 9-9s-4-9-9-9zM263.3 644.5h-200c-5 0-9 4-9 9s4 9 9 9h200c5 0 9-4 9-9s-4-9-9-9zM947.3 711.5h-200c-5 0-9 4-9 9s4 9 9 9h200c5 0 9-4 9-9s-4-9-9-9zM263.3 711.5h-200c-5 0-9 4-9 9s4 9 9 9h200c5 0 9-4 9-9s-4-9-9-9zM576.1 675.4c-3.8-3.2-9.5-2.7-12.7 1.1-6 7.2-14.4 11.6-23.8 12.4-9.3 0.8-18.4-2-25.5-8.1-0.6-0.5-1.2-0.8-1.8-1.2v-29.4c3.5-0.9 6.9-2.3 10-4.3l22.7-14.7c4.1-2.6 6.5-7.2 6.5-12 0-7.9-6.4-14.3-14.3-14.3h-66.1c-4.9 0-9.4 2.5-12 6.5-4.3 6.6-2.4 15.5 4.3 19.7l22.7 14.7c2.6 1.6 5.3 2.9 8.1 3.8v28c-5.9 6.4-13.9 10.4-22.7 11.1-9.3 0.8-18.4-2-25.5-8.1-3.8-3.2-9.5-2.7-12.7 1.1-3.2 3.8-2.7 9.5 1.1 12.7 9.6 8.1 21.5 12.4 34 12.4 1.6 0 3.1-0.1 4.7-0.2 11-1 21.1-5.2 29.4-12.1 9.6 8 21.5 12.4 33.9 12.4 1.6 0 3.1-0.1 4.7-0.2 14.1-1.2 26.9-7.9 36-18.7 3.3-3.7 2.8-9.4-1-12.6z" fill="#525252" p-id="2314"></path></svg>